<svg xmlns="http://www.w3.org/2000/svg" xmlns:xlink="http://www.w3.org/1999/xlink" version="1.1" width="36" height="36" viewBox="0 0 24 24" fill="#E8DDCB" overflow="hidden"><path d=" M 0 0 L 24 0 L 24 24 L 0 24 L 0 0 Z" stroke="none" stroke-width="0.222222" stroke-dasharray="" stroke-dashoffset="1" stroke-opacity="1" fill="none"/><path d=" M 12 2 C 8.13 2 5 5.13 5 9 C 5 14.25 12 22 12 22 C 12 22 19 14.25 19 9 C 19 5.13 15.87 2 12 2 Z M 12 11.5 C 10.62 11.5 9.5 10.38 9.5 9 C 9.5 7.62 10.62 6.5 12 6.5 C 13.38 6.5 14.5 7.62 14.5 9 C 14.5 10.38 13.38 11.5 12 11.5 Z" stroke="none" stroke-width="0.222222" stroke-dasharray="" stroke-dashoffset="1" stroke-opacity="1" fill="#384376"/></svg>